inDegrees=no
num_controls=7
num_derivatives=13
num_iterations=94
num_multipliers=7
num_parameters=0
num_slacks=7
num_states=26
objective=5.536117
objective_accelerations=0.711581
objective_balance=0.044253
objective_effort=0.275024
objective_height=4.436919
objective_ligament=0.068340
solver_duration=1056.978675
status=Solve_Succeeded
success=true
DataType=double
version=3
OpenSimVersion=4.4-2022-07-23-0e9fedc
endheader
time	/jointset/ground_pelvis/pelvis_tilt/value	/jointset/ground_pelvis/pelvis_tx/value	/jointset/ground_pelvis/pelvis_ty/value	/jointset/hip_l/hip_flexion_l/value	/jointset/hip_l/hip_adduction_l/value	/jointset/hip_l/hip_rotation_l/value	/jointset/back/lumbar_extension/value	/jointset/patellofemoral_l/patellar_flexion_l/value	/jointset/knee_l/knee_flexion_l/value	/jointset/knee_l/knee_adduction_l/value	/jointset/knee_l/knee_rotation_l/value	/jointset/ankle_l/ankle_angle_l/value	/jointset/subtalar_l/subtalar_angle_l/value	/jointset/ground_pelvis/pelvis_tilt/speed	/jointset/ground_pelvis/pelvis_tx/speed	/jointset/ground_pelvis/pelvis_ty/speed	/jointset/hip_l/hip_flexion_l/speed	/jointset/hip_l/hip_adduction_l/speed	/jointset/hip_l/hip_rotation_l/speed	/jointset/back/lumbar_extension/speed	/jointset/patellofemoral_l/patellar_flexion_l/speed	/jointset/knee_l/knee_flexion_l/speed	/jointset/knee_l/knee_adduction_l/speed	/jointset/knee_l/knee_rotation_l/speed	/jointset/ankle_l/ankle_angle_l/speed	/jointset/subtalar_l/subtalar_angle_l/speed	/forceset/tau_hip_flexion_l	/forceset/tau_hip_adduction_l	/forceset/tau_hip_rotation_l	/forceset/tau_knee_flexion_l	/forceset/tau_ankle_angle_l	/forceset/tau_subtalar_angle_l	/forceset/tau_lumbar_extension	lambda_cid13_p0	lambda_cid13_p1	lambda_cid13_p2	lambda_cid13_p3	lambda_cid13_p4	lambda_cid13_p5	lambda_cid14_p0	/jointset/ground_pelvis/pelvis_tilt/accel	/jointset/ground_pelvis/pelvis_tx/accel	/jointset/ground_pelvis/pelvis_ty/accel	/jointset/hip_l/hip_flexion_l/accel	/jointset/hip_l/hip_adduction_l/accel	/jointset/hip_l/hip_rotation_l/accel	/jointset/back/lumbar_extension/accel	/jointset/patellofemoral_l/patellar_flexion_l/accel	/jointset/knee_l/knee_flexion_l/accel	/jointset/knee_l/knee_adduction_l/accel	/jointset/knee_l/knee_rotation_l/accel	/jointset/ankle_l/ankle_angle_l/accel	/jointset/subtalar_l/subtalar_angle_l/accel	gamma_cid13_p0	gamma_cid13_p1	gamma_cid13_p2	gamma_cid13_p3	gamma_cid13_p4	gamma_cid13_p5	gamma_cid14_p0
1	-0.5374213513379069	-0.06381822912858683	0.5779470776494132	1.802506077676935	-0.4702264488623484	0.01265910845426877	-0.2617597318172138	1.400646330654031	1.400646330654351	-0.07692173362232976	-0.1745207732848321	0.2594920564324996	0.009982182009925409	-0.01731653449832339	0.01048377960995237	0.002579025491914745	-0.002521023918150597	-0.002824699653007134	0.002483361565055664	0.0002912550794938148	0.0001530853736663598	0.0001530853736680609	-0.00554366565189328	-0.0003878519198368161	0.01954195582737417	0.008283681272208071	-0.3282158491607902	0.03394681406471427	0.0001815456130221759	-0.3031302461781378	0.01147965658054627	0.02068478974332661	0.2813398591413199	-36.07200003001472	-2.539843964445844	-0.07676300260413291	8.989256551597176	-641.9171238380467	-39.11250567079366	-1.092919885628311	1.507601158765317	0.2141780730198447	1.952919578860355	-6.72289698537416	-0.05801572194545934	-2.335891833328212	-0.01921196674385314	-5.354829842061137	-5.354829842060748	-0.6398678248699528	-0.04723290477633647	-0.8316054097319573	-0.554763833872681	5.144811874827672e-09	2.156774681356339e-08	-1.185448454691288e-08	3.937912846770182e-09	-1.242318803255652e-09	2.593973714519527e-08	2.750283790652167e-09
1.01	-0.5375200712761252	-0.06370274526637454	0.5780703645730086	1.802146060447222	-0.4702564246761293	0.01256622963196686	-0.2617567896189352	1.400380261553257	1.400380261553479	-0.07700638311194329	-0.1745252946438409	0.2596460925477522	0.01003898395924803	-0.002428920870255834	0.01261414729044749	0.02207445897316073	-0.06946943130480625	-0.003150605962159283	-0.02103704398036022	0.0002969406343824921	-0.05336555609584	-0.05336555609582679	-0.01137912962421337	-0.0004818138973404798	0.01126122570016196	0.003100220313653129	-0.32811244092913	0.03408153084931718	0.0001676341399390148	-0.3029600332236568	0.01133215667947778	0.02069510813437122	0.2812576876337791	-36.10640843497414	-2.541547321921313	-0.07278289069565536	8.934804008874117	-641.7644469302174	-39.11040800110688	-1.097783175660874	1.47912028265374	0.212640380020887	1.947268057400297	-6.678865258144525	-0.01690153112768716	-2.3568072831393	0.0104222217945378	-5.350177247023268	-5.350177247021615	-0.5543224671651066	0.0147216117766823	-0.8269119419799956	-0.4966167223163693	-1.625428799338417e-09	1.604695922356819e-08	3.081185971018171e-08	5.469483309835999e-09	-1.059147790773201e-08	7.159098066070512e-08	-8.084388542422644e-09
1.02	-0.5374699593144771	-0.0635659228744644	0.5783884883963434	1.801116948615122	-0.4702890642421252	0.01223880828032828	-0.2617537978840334	1.399579046848306	1.399579046848262	-0.07714917459819157	-0.1745297157317404	0.2597172003361749	0.0100446553998926	0.01244984547087912	0.01475148554952106	0.04154640544014477	-0.1363399444047187	-0.003357450100379017	-0.04442514424555236	0.0003011623968726679	-0.1068760354704512	-0.106876035470429	-0.0171720649467103	-0.0003677976344569144	0.002956290462363658	-0.001942420463826713	-0.3280090326973734	0.03421624763340467	0.000153722669151483	-0.3027898202691933	0.01118465677821327	0.02070542652456891	0.2811755161264247	-36.14718656112041	-2.542229455628548	-0.06885811837865916	8.905778362784128	-641.7033771648802	-39.08736660656753	-1.111931610000485	1.505831701379311	0.2155721887351014	1.948222176007932	-6.707318128025392	-0.03420328775819842	-2.309430777282735	-0.01950472522460381	-5.353197423082333	-5.353197423082442	-0.6313620949049787	-0.00563725669745932	-0.8364464318498405	-0.5265997976570355	-1.193116810216298e-08	4.248557598546874e-10	7.060190740659823e-08	4.438798736775731e-09	-2.162752814415429e-08	1.183081715213785e-07	-2.159260583762489e-08
1.03	-0.5372710439430448	-0.06340765555879398	0.5789011364045701	1.799419623139203	-0.4703232999824751	0.0116780309991725	-0.2617507989774939	1.398242856672025	1.398242856672216	-0.07734972880536269	-0.1745323205850242	0.2597050228565269	0.01000037774485137	0.02733705651707214	0.01690671774843186	0.06097152232568549	-0.203101336423162	-0.003481119689784403	-0.06772132517686415	0.0002963188999381701	-0.1603520197992055	-0.1603520197991964	-0.0229352742722689	-0.0001530008260316581	-0.005407072198382693	-0.006910852659282191	-0.3275999397735567	0.03439115898602728	0.0001065055000453791	-0.3024724017536077	0.01114804459102781	0.02076646753752398	0.2808836801408572	-36.13095052984522	-2.582991415933586	-0.04932768988694802	8.802121216877579	-641.3249485043067	-39.10952388616382	-1.135569207421418	1.480736365081409	0.2162104295156602	1.937898759513439	-6.656981809410489	-0.0001715770335480732	-2.338385629065684	0.008680833057687068	-5.343294832645965	-5.343294832647572	-0.5482890659714479	0.0350918498458363	-0.8385749975474258	-0.4816367138083942	-2.227298392160653e-08	-1.530032235563151e-08	1.103626051381098e-07	3.381968704163141e-09	-3.268079155539236e-08	1.65036239395778e-07	-3.512810420386927e-08
1.04	-0.5369231423493764	-0.06322769358232301	0.5796076840445874	1.797055397328978	-0.4703585169752045	0.01088455713273932	-0.2617479175068581	1.396372207473541	1.396372207473799	-0.07760781284892064	-0.1745327667309646	0.2596087529873915	0.009906481411192982	0.04224708991698412	0.01909041770962844	0.0803263317986244	-0.2697200112677844	-0.003553700579189205	-0.09096446122875014	0.0002776752024681578	-0.2137678399229115	-0.2137678399229147	-0.02867803218154895	6.39439915200192e-05	-0.01386218743356962	-0.01186615618765263	-0.327190846849868	0.03456607033791818	5.928833319905135e-05	-0.302154983238042	0.01111143240361086	0.02082750854932105	0.2805918441552709	-36.12112021790707	-2.622727808039858	-0.029851062978964	8.72402006786157	-641.0384509672579	-39.11136725820924	-1.16899074915584	1.510396172123438	0.221265741192075	1.934160693487474	-6.678774693261203	-0.02398554775849719	-2.298821801397993	-0.02226476533251662	-5.341164582072517	-5.34116458207249	-0.6272718116494287	-0.005207654873069519	-0.8547969467383926	-0.5239740642408323	-2.720378104981755e-08	-1.634094989558627e-08	1.530591919658473e-07	6.103209213721172e-09	-4.09033892524056e-08	2.061481468407706e-07	-4.411869221056777e-08
